HIERARCHY
ROOT Pelvis
{
	OFFSET 0.000000 0.000000 0.000000
	CHANNELS 6 Xposition Yposition Zposition Xrotation Yrotation Zrotation
	JOINT LeftUpLeg_virtual
	{
		OFFSET 0.000000 0.000000 0.000000
		CHANNELS 3 Xrotation Yrotation Zrotation
		JOINT LeftUpLeg
		{
			OFFSET 18.735201 -5.666702 -4.541200
			CHANNELS 3 Xrotation Yrotation Zrotation
			JOINT LeftLeg
			{
				OFFSET -0.021200 -31.938179 0.493100
				CHANNELS 3 Xrotation Yrotation Zrotation
				JOINT LeftFoot
				{
					OFFSET 0.021200 -31.938179 -4.336299
					CHANNELS 3 Xrotation Yrotation Zrotation
					JOINT LeftToeBase
					{
						OFFSET 0.943001 -26.722000 15.023500
						CHANNELS 3 Xrotation Yrotation Zrotation
						End Site
						{
							OFFSET 0 0 0
						}
					}
				}
			}
		}
	}
	JOINT RightUpLeg_virtual
	{
		OFFSET 0.000000 0.000000 0.000000
		CHANNELS 3 Xrotation Yrotation Zrotation
		JOINT RightUpLeg
		{
			OFFSET -18.735201 -5.666702 -4.541200
			CHANNELS 3 Xrotation Yrotation Zrotation
			JOINT RightLeg
			{
				OFFSET 0.018946 -31.938133 0.493100
				CHANNELS 3 Xrotation Yrotation Zrotation
				JOINT RightFoot
				{
					OFFSET -0.018946 -31.938126 -4.336299
					CHANNELS 3 Xrotation Yrotation Zrotation
					JOINT RightToeBase
					{
						OFFSET -0.943001 -26.722004 15.023500
						CHANNELS 3 Xrotation Yrotation Zrotation
						End Site
						{
							OFFSET 0 0 0
						}
					}
				}
			}
		}
	}
	JOINT Hips_virtual
	{
		OFFSET 0.000000 0.000000 0.000000
		CHANNELS 3 Xrotation Yrotation Zrotation
		JOINT Hips
		{
			OFFSET -0.000000 -0.000000 -0.000000
			CHANNELS 3 Xrotation Yrotation Zrotation
			JOINT Spine
			{
				OFFSET 0.000000 10.199997 -0.299500
				CHANNELS 3 Xrotation Yrotation Zrotation
				JOINT Spine1
				{
					OFFSET 0.000000 11.900002 -1.516600
					CHANNELS 3 Xrotation Yrotation Zrotation
					JOINT Spine2
					{
						OFFSET 0.000000 13.600006 -2.842500
						CHANNELS 3 Xrotation Yrotation Zrotation
						JOINT Neck_virtual
						{
							OFFSET 0.000000 0.000000 0.000000
							CHANNELS 3 Xrotation Yrotation Zrotation
							JOINT Neck
							{
								OFFSET 0.000000 9.624100 -2.890100
								CHANNELS 3 Xrotation Yrotation Zrotation
								JOINT Head
								{
									OFFSET 0.000000 14.068802 -1.351900
									CHANNELS 3 Xrotation Yrotation Zrotation
									End Site
									{
										OFFSET 0 0 0
									}
								}
							}
						}
						JOINT LeftShoulder_virtual
						{
							OFFSET 0.000000 0.000000 0.000000
							CHANNELS 3 Xrotation Yrotation Zrotation
							JOINT LeftShoulder
							{
								OFFSET 15.263000 10.923401 -0.547700
								CHANNELS 3 Xrotation Yrotation Zrotation
								JOINT LeftArm
								{
									OFFSET 25.438599 -2.830597 -13.032500
									CHANNELS 3 Xrotation Yrotation Zrotation
									JOINT LeftForeArm
									{
										OFFSET 29.960503 0.000000 0.000000
										CHANNELS 3 Xrotation Yrotation Zrotation
										JOINT LeftHand
										{
											OFFSET 27.849251 0.000000 0.000000
											CHANNELS 3 Xrotation Yrotation Zrotation
											End Site
											{
												OFFSET 0 0 0
											}
										}
									}
								}
							}
						}
						JOINT RightShoulder_virtual
						{
							OFFSET 0.000000 0.000000 0.000000
							CHANNELS 3 Xrotation Yrotation Zrotation
							JOINT RightShoulder
							{
								OFFSET -15.263000 10.923401 -0.547700
								CHANNELS 3 Xrotation Yrotation Zrotation
								JOINT RightArm
								{
									OFFSET -25.438599 -2.830597 -13.032500
									CHANNELS 3 Xrotation Yrotation Zrotation
									JOINT RightForeArm
									{
										OFFSET -29.960503 0.000000 0.000000
										CHANNELS 3 Xrotation Yrotation Zrotation
										JOINT RightHand
										{
											OFFSET -27.849251 0.000000 0.000000
											CHANNELS 3 Xrotation Yrotation Zrotation
											End Site
											{
												OFFSET 0 0 0
											}
										}
									}
								}
							}
						}
					}
				}
			}
		}
	}
}
MOTION
Frames: 4
Frame Time: 0.03333333
3.690841 88.306175 -2.413071 0.000000 0.000000 0.000000 6.496457 -35.254404 -19.719217 -40.172649 -4.927175 21.732074 57.632323 6.658654 10.242663 -20.569909 33.751957 -8.224478 0.000000 0.000000 0.000000 4.374366 -33.951084 -20.644885 -27.623838 3.586195 25.365724 6.576044 -0.200478 3.510100 10.532020 10.400322 -3.161990 0.000000 0.000000 0.000000 6.046740 -33.175540 -19.851783 -0.758608 -0.146211 -0.732823 17.173669 -5.731266 13.893797 14.599762 -0.597821 9.110292 0.000000 0.000000 0.000000 13.203790 0.140616 8.559689 -0.346805 -0.562961 2.782620 0.000000 0.000000 0.000000 13.937722 0.372029 8.456321 0.662517 -20.356762 -11.054203 -31.279036 -23.739714 -60.251865 1.618818 -17.611216 0.493228 0.000000 0.000000 0.000000 13.202204 0.302602 8.324360 3.494437 4.272956 13.575136 10.993489 49.285764 20.189699 -1.340386 29.593338 1.182335 0.000000 0.000000 0.000000 
3.587921 88.306824 -2.426922 0.000000 0.000000 0.000000 6.490841 -34.894128 -19.741125 -40.221123 -4.914159 21.856759 57.599648 6.588863 10.188245 -20.538437 33.391381 -8.176570 0.000000 0.000000 0.000000 4.361436 -33.598978 -20.645403 -27.458318 3.660676 25.417844 6.506537 -0.251005 3.458252 10.483073 10.228960 -3.263172 0.000000 0.000000 0.000000 6.048396 -32.821047 -19.855252 -0.763724 -0.176833 -0.718153 17.017717 -5.735199 14.111023 14.544521 -0.615839 9.194587 0.000000 0.000000 0.000000 13.164233 0.122315 8.636502 -0.321229 -0.560893 2.758986 0.000000 0.000000 0.000000 13.871616 0.345494 8.535347 0.636245 -20.423041 -11.114237 -31.156997 -24.285106 -60.665037 1.645036 -17.561709 0.504953 0.000000 0.000000 0.000000 13.152526 0.277146 8.400127 3.652914 4.361082 12.998175 10.998825 49.198935 20.659943 -1.371482 29.845017 1.097765 0.000000 0.000000 0.000000 
3.491569 88.315491 -2.447655 0.000000 0.000000 0.000000 6.467182 -34.488972 -19.755197 -40.259567 -4.906253 21.950613 57.527644 6.523524 10.121840 -20.468446 33.022831 -8.111863 0.000000 0.000000 0.000000 4.333792 -33.207943 -20.632676 -27.283768 3.708169 25.433806 6.486318 -0.333601 3.417093 10.355333 9.998588 -3.402922 0.000000 0.000000 0.000000 6.045551 -32.408237 -19.839813 -0.763956 -0.205965 -0.707073 16.854918 -5.738678 14.334465 14.486080 -0.630283 9.283968 0.000000 0.000000 0.000000 13.123249 0.106313 8.717794 -0.290324 -0.563075 2.738220 0.000000 0.000000 0.000000 13.807345 0.321985 8.618475 0.608872 -20.496402 -11.168100 -30.927493 -24.789839 -61.079001 1.656930 -17.491433 0.517345 0.000000 0.000000 0.000000 13.105583 0.255273 8.480255 3.820533 4.437814 12.425773 10.940338 49.115416 21.207640 -1.394162 30.082359 1.017828 0.000000 0.000000 0.000000 
3.400084 88.338921 -2.455505 0.000000 0.000000 0.000000 6.434732 -34.068693 -19.756040 -40.237642 -4.923757 21.998689 57.400684 6.464599 10.074929 -20.390294 32.668942 -8.045701 0.000000 0.000000 0.000000 4.291384 -32.800484 -20.607635 -27.108000 3.726312 25.430072 6.504446 -0.427244 3.376653 10.173335 9.742830 -3.549996 0.000000 0.000000 0.000000 6.043253 -31.960644 -19.809164 -0.756827 -0.233270 -0.710284 16.680080 -5.742281 14.563970 14.421348 -0.639859 9.379050 0.000000 0.000000 0.000000 13.080492 0.093048 8.803843 -0.251580 -0.567915 2.719368 0.000000 0.000000 0.000000 13.744655 0.303098 8.707157 0.581995 -20.566714 -11.210315 -30.589583 -25.256639 -61.486852 1.653078 -17.384105 0.529334 0.000000 0.000000 0.000000 13.060055 0.237826 8.567339 3.996704 4.506728 11.863882 10.794844 49.029837 21.858449 -1.407034 30.310057 0.941583 0.000000 0.000000 0.000000 
